<svg width="512" height="512" viewBox="0 0 512 512" fill="none" xmlns="http://www.w3.org/2000/svg">
<g clip-path="url(#clip0_602_11)">
<rect width="512" height="512" fill="white"/>
<path d="M288.549 20.9775C289.521 15.2406 291.762 10.1046 294.94 6.33241C298.118 2.56025 302.063 0.353137 306.188 0.0389115C310.314 -0.275314 314.401 1.32011 317.841 4.5882C321.282 7.85629 323.893 12.6227 325.286 18.1795L377.807 228.561C396.508 228.525 408.374 223.587 420.944 210.127C424.633 203.577 429.085 197.985 434.103 193.595L435.217 191.986V192.626C443.001 186.212 451.829 182.838 460.815 182.842C469.801 182.846 478.628 186.229 486.409 192.651C494.19 199.072 500.651 208.306 505.143 219.425C509.635 230.543 512 243.155 512 255.993C512 268.831 509.635 281.443 505.143 292.561C500.651 303.68 494.19 312.914 486.409 319.335C478.628 325.757 469.801 329.139 460.815 329.144C451.829 329.148 443.001 325.774 435.217 319.36V320L434.078 318.391C429.341 314.239 425.117 309.009 421.559 302.956C409.91 290.886 398.966 286.771 382.76 286.095H364.917C360.957 286.092 357.095 284.34 353.859 281.079C350.624 277.818 348.173 273.208 346.842 267.88L310.783 123.407L248.854 491.008C247.881 496.765 245.631 501.916 242.439 505.694C239.246 509.471 235.284 511.672 231.145 511.966C227.005 512.26 222.909 510.633 219.471 507.327C216.032 504.021 213.434 499.213 212.066 493.623L139.756 197.765L120.273 268.685C118.864 273.816 116.405 278.221 113.218 281.326C110.03 284.432 106.262 286.093 102.404 286.095H0V231.231H89.3091L122.936 108.813C124.37 103.602 126.886 99.1424 130.147 96.0338C133.407 92.9253 137.255 91.3167 141.174 91.4242C145.093 91.5318 148.895 93.3502 152.069 96.6353C155.243 99.9203 157.638 104.515 158.931 109.801L226.799 387.5L288.549 20.9775Z" fill="black"/>
</g>
<defs>
<clipPath id="clip0_602_11">
<rect width="512" height="512" fill="white"/>
</clipPath>
</defs>
</svg>
