<svg width="512" height="512" viewBox="0 0 512 512" fill="none" xmlns="http://www.w3.org/2000/svg">
<rect width="512" height="512" fill="white"/>
<path d="M284.607 49.4373C285.462 44.395 287.432 39.881 290.225 36.5656C293.018 33.2502 296.485 31.3104 300.111 31.0342C303.737 30.758 307.329 32.1603 310.353 35.0326C313.377 37.9049 315.671 42.0942 316.896 46.9781L363.057 231.884C379.494 231.852 389.923 227.512 400.971 215.682C404.213 209.925 408.125 205.01 412.536 201.152L413.515 199.738V200.3C420.356 194.663 428.116 191.697 436.013 191.701C443.911 191.705 451.669 194.678 458.508 200.322C465.347 205.966 471.025 214.081 474.973 223.854C478.922 233.626 481 244.711 481 255.994C481 267.277 478.922 278.362 474.973 288.134C471.025 297.906 465.347 306.022 458.508 311.666C451.669 317.31 443.911 320.283 436.013 320.287C428.116 320.29 420.356 317.325 413.515 311.687V312.25L412.514 310.836C408.351 307.187 404.638 302.59 401.511 297.27C391.273 286.661 381.654 283.045 367.411 282.45H351.727C348.247 282.448 344.853 280.908 342.009 278.042C339.165 275.176 337.011 271.124 335.842 266.441L304.149 139.463L249.72 462.55C248.865 467.61 246.886 472.138 244.081 475.458C241.275 478.778 237.793 480.712 234.154 480.97C230.516 481.229 226.916 479.798 223.894 476.893C220.872 473.987 218.589 469.762 217.386 464.849L153.832 204.817L136.709 267.149C135.47 271.658 133.309 275.53 130.508 278.259C127.706 280.989 124.394 282.449 121.004 282.45H31V234.231H109.494L139.049 126.637C140.31 122.056 142.521 118.137 145.387 115.405C148.252 112.673 151.634 111.259 155.079 111.353C158.523 111.448 161.865 113.046 164.654 115.933C167.444 118.821 169.549 122.859 170.685 127.505L230.335 371.576L284.607 49.4373Z" fill="black"/>
</svg>
